# xmcd
#
# Track frame offsets:
#	150
#	14568
#	26067
#	42123
#	53515
#	70419
#	81233
#	103645
#	115962
#	124989
#	139391
#	153834
#	167921
#	180278
#	192394
#	205514
#	222434
#	233045
#	243066
#
# Disc length: 3500 seconds
#
# Revision: 0
# Processed by: cddbd v1.5.2PL0 Copyright (c) Steve Scherf et al.
# Submitted via: audiograbber 1.83.01
#
DISCID=050daa13
DTITLE=Various Artist - Dynamite No.22
DYEAR=2010
DGENRE=Modern Rockabilly
TTITLE0=The Reckless Ones - One Knife For You
TTITLE1=Skinny Jim and The Number 9 Blacktops - 57 Dragstrip
TTITLE2=Red Hot Trio - Doghouse
TTITLE3=The Creepshow - They All Fall Down
TTITLE4=Psychopunch - The Way She`s Kissing
TTITLE5=The Satelliters - Waste Of Time
TTITLE6=Tom Toxic und die Holstein Rockets - In der Zeit des Rock`n`Roll
TTITLE7=The Moving Sounds - Jon Was A Rich Man
TTITLE8=Jungle Tigers - She`s My Witch
TTITLE9=The Rioters - Till I Get Sober
TTITLE10=Die Tornados - The Evil Is Back
TTITLE11=Nervous Breakdown - You Bring Me Down
TTITLE12=Boppin`B - The Only Way
TTITLE13=The Lazy Boys - Heartbreaking Woman
TTITLE14=The Buttshakers - You Talk Too Much
TTITLE15=Christophe Dupin - Play Rock`n`Roll and Rockabilly On The Radio
TTITLE16=6 Feet Down - One Night In Hell
TTITLE17=Hank Cash - Helll Yeah Beer (Rusty Nail Version)
TTITLE18=Yellow Cap - Jack The Ripper
EXTD=
EXTT0=
EXTT1=
EXTT2=
EXTT3=
EXTT4=
EXTT5=
EXTT6=
EXTT7=
EXTT8=
EXTT9=
EXTT10=
EXTT11=
EXTT12=
EXTT13=
EXTT14=
EXTT15=
EXTT16=
EXTT17=
EXTT18=
PLAYORDER=
